<svg xmlns="http://www.w3.org/2000/svg" width="24" height="24" viewBox="0 0 24 24">
  <path fill="#0064FE" d="M18.7335,22.4835 L3.75,22.4835 C1.68225,22.4835 0,20.8005 0,18.7335 L0,3.75 C0,1.68225 1.68225,0 3.75,0 L18.7335,0 C20.8005,0 22.4835,1.68225 22.4835,3.75 L22.4835,18.7335 C22.4835,20.8005 20.8005,22.4835 18.7335,22.4835 Z M3.75,1.5 C2.5095,1.5 1.5,2.5095 1.5,3.75 L1.5,18.7335 C1.5,19.974 2.5095,20.9835 3.75,20.9835 L18.7335,20.9835 C19.974,20.9835 20.9835,19.974 20.9835,18.7335 L20.9835,3.75 C20.9835,2.5095 19.974,1.5 18.7335,1.5 L3.75,1.5 Z M5.45325,7.92375 L5.4345,7.92375 C4.08375,7.92375 3.02625,6.84225 3.02625,5.46225 C3.02625,4.086 4.07775,3.04875 5.4735,3.04875 C6.849,3.04875 7.86975,4.0665 7.90125,5.469 C7.90125,6.876 6.849,7.92375 5.45325,7.92375 Z M5.4735,4.54875 C4.8195,4.54875 4.52625,5.00775 4.52625,5.46225 C4.52625,5.94 4.83825,6.42375 5.4345,6.42375 L5.45325,6.42375 C6.105,6.42375 6.40125,5.93775 6.40125,5.48625 C6.3915,5.0625 6.1425,4.54875 5.4735,4.54875 Z M7.15125,18.79875 L3.77625,18.79875 C3.3615,18.79875 3.02625,18.46275 3.02625,18.04875 L3.02625,9.04875 C3.02625,8.63475 3.3615,8.29875 3.77625,8.29875 L7.15125,8.29875 C7.566,8.29875 7.90125,8.63475 7.90125,9.04875 L7.90125,18.04875 C7.90125,18.46275 7.566,18.79875 7.15125,18.79875 Z M4.52625,17.29875 L6.40125,17.29875 L6.40125,9.79875 L4.52625,9.79875 L4.52625,17.29875 Z M18.77625,18.79875 L15.56175,18.79875 C15.147,18.79875 14.81175,18.46275 14.81175,18.04875 L14.81175,13.203 C14.81175,12.85275 14.57175,12.56775 14.27625,12.56775 C13.9815,12.56775 13.74075,12.85275 13.74075,13.203 L13.74075,18.04875 C13.74075,18.46275 13.4055,18.79875 12.99075,18.79875 L9.77625,18.79875 C9.5775,18.79875 9.3855,18.71925 9.2445,18.57825 C9.10425,18.4365 9.0255,18.24525 9.02625,18.04575 C9.03675,15.74025 9.057,9.639 9.027,9.08925 C9.01575,8.88375 9.09,8.68275 9.2325,8.53275 C9.3735,8.3835 9.57075,8.29875 9.77625,8.29875 L12.99075,8.29875 C13.29525,8.29875 13.557,8.4795 13.674,8.73975 C14.16825,8.51325 14.7945,8.32725 15.522,8.32725 C17.45775,8.32725 19.52625,9.67125 19.52625,13.4415 L19.52625,18.04875 C19.52625,18.46275 19.191,18.79875 18.77625,18.79875 Z M16.31175,17.29875 L18.02625,17.29875 L18.02625,13.4415 C18.02625,11.14425 17.1135,9.82725 15.522,9.82725 C14.33025,9.82725 13.53,10.5975 13.5225,10.60575 C13.30875,10.82175 12.98625,10.88475 12.70425,10.77 C12.42375,10.6545 12.24075,10.38 12.24075,10.077 L12.24075,9.79875 L10.53825,9.79875 C10.55025,11.55825 10.536,15.6075 10.52925,17.29875 L12.24075,17.29875 L12.24075,13.203 C12.24075,12.0255 13.15425,11.06775 14.27625,11.06775 C15.39825,11.06775 16.31175,12.0255 16.31175,13.203 L16.31175,17.29875 Z" transform="translate(.75 .75)"/>
</svg>
